<?xml version="1.0" encoding="utf-8"?>
<!-- Generator: Adobe Illustrator 21.0.0, SVG Export Plug-In . SVG Version: 6.00 Build 0)  -->
<svg version="1.1" id="Layer_1" xmlns="http://www.w3.org/2000/svg" xmlns:xlink="http://www.w3.org/1999/xlink" x="0px" y="0px"
	 width="1400px" height="980px" viewBox="0 0 1400 980" enable-background="new 0 0 1400 980" xml:space="preserve">
<g>
	<rect fill="#FFFFFF" width="1400" height="980"/>
	<g>
		<g>
			<path fill="#E31E26" d="M82.5,431.9c0,0,11,11.5,35.4,6c0,0,21.9,11.5,35.4-6c0,0,4.7,7.7,22.9,7v24.4
				C176.1,463.3,118.8,485.7,82.5,431.9z"/>
			<path fill="#EDD3A9" d="M139.3,294.9c22.9,56.3,13.9,137,13.9,137s4.7,7.7,22.9,7V288.9C176.1,288.9,155.2,281.5,139.3,294.9z"/>
			<path fill="#D8BC99" d="M100.4,287.4c0,0,50.6,67,17.4,150.4c0,0,21.9,11.5,35.4-6c0,0,9-80.7-13.9-137
				C139.3,294.9,125.3,276,100.4,287.4z"/>
			<path fill="#EDD3A9" d="M59.6,289.4c0,0,83.4,65,22.9,142.5c0,0,11,11.5,35.4,6c33.1-83.4-17.4-150.4-17.4-150.4
				S79,273.5,59.6,289.4z"/>
			<path fill="#BF181D" d="M269.8,431.9c0,0-11,11.5-35.4,6c0,0-21.9,11.5-35.4-6c0,0-4.7,7.7-22.9,7v24.4
				C176.1,463.3,233.4,485.7,269.8,431.9z"/>
			<path fill="#D8BC99" d="M213,294.9c-22.9,56.3-13.9,137-13.9,137s-4.7,7.7-22.9,7V288.9C176.1,288.9,197.1,281.5,213,294.9z"/>
			<path fill="#EDD3A9" d="M251.9,287.4c0,0-50.6,67-17.4,150.4c0,0-21.9,11.5-35.4-6c0,0-9-80.7,13.9-137
				C213,294.9,227,276,251.9,287.4z"/>
			<path fill="#D8BC99" d="M292.7,289.4c0,0-83.4,65-22.9,142.5c0,0-11,11.5-35.4,6c-33.1-83.4,17.4-150.4,17.4-150.4
				S273.3,273.5,292.7,289.4z"/>
			<path fill="#E31E26" d="M176.1,267.5v21.4c0,0-20.9-7.5-36.9,6c0,0-13.9-18.9-38.9-7.5c0,0-21.4-13.9-40.8,2
				c0,0,27.4-49.1,81.9-38.6c0,0,11.2,2.2,19.9,8.5C161.4,259.3,171.2,265.4,176.1,267.5z"/>
			<path fill="#581C0F" d="M153.3,352.6c-10,0.5-10,16.3-10,16.3c0,12.5,9.8,12,9.8,12s10.1,0.5,10.1-12
				C163.3,368.9,163.3,353.1,153.3,352.6z"/>
			<path fill="#581C0F" d="M127.7,357.2c-6.7,0.3-6.7,11-6.7,11c0,8.4,6.6,8,6.6,8s6.8,0.3,6.8-8
				C134.4,368.2,134.4,357.5,127.7,357.2z"/>
			<path fill="#581C0F" d="M223.6,357.2c-6.7,0.3-6.7,11-6.7,11c0,8.4,6.6,8,6.6,8s6.8,0.3,6.8-8
				C230.3,368.2,230.3,357.5,223.6,357.2z"/>
			<path fill="#BF181D" d="M176.1,267.5v21.4c0,0,20.9-7.5,36.9,6c0,0,13.9-18.9,38.9-7.5c0,0,21.4-13.9,40.8,2
				c0,0-27.4-49.1-81.9-38.6c0,0-11.2,2.2-19.9,8.5C190.8,259.3,181.1,265.4,176.1,267.5z"/>
			<path fill="#581C0F" d="M199,352.6c10,0.5,10,16.3,10,16.3c0,12.5-9.8,12-9.8,12s-10.1,0.5-10.1-12
				C189,368.9,189,353.1,199,352.6z"/>
			<path fill="#68A238" d="M170.1,264.4c2.2,1.2,4.4,2.4,6.1,3.1c1-0.4,2.3-1.1,3.6-1.8l0,0C183,241,191,227.1,196.7,220
				c3.1-3.8,2.6-9.4-1-12.7l0,0c-4.3-3.9-11.1-3-14.1,1.9C170,227.7,170.1,264.4,170.1,264.4L170.1,264.4z"/>
			<path fill="#91C33E" d="M173.2,232.9c-2.8-27.6-29.4-26.2-36.1-25.3c-2.2,0.3-4.5,0.1-6.6-0.6c-3.4-1.2-5.6-3.4-7-5.6
				c-0.9-1.4-3.1-0.8-3.2,0.9c-2.7,57.6,52,35.5,52,35.5C172.6,236,172.9,234.5,173.2,232.9z"/>
		</g>
		<g>
			<g>
				<path fill="#F47820" d="M522.3,260.2h-84.6L449,417.8c0.8,10.6,9.6,18.8,20.2,18.8h53h53c10.6,0,19.5-8.2,20.2-18.8l11.3-157.6
					H522.3z"/>
				<path fill="#D56A1C" d="M522.3,227.8H416.2l0.9,13.6c0.7,10.6,9.5,18.8,20.1,18.8h85h85c10.6,0,19.4-8.2,20.1-18.8l0.9-13.6
					H522.3z"/>
				<path fill="#D56A1C" d="M615.3,195.2l-84.1-19.2l-84.1-19.2c-10.7-2.4-21.3,4.3-23.8,14.9l-2,8.8l103.5,23.6l103.5,23.6l2-8.8
					C632.7,208.3,626,197.6,615.3,195.2z"/>
				<path fill="#F47820" d="M595.8,173.5L535,159.6l-60.8-13.8c-8.5-1.9-17,3.4-18.9,11.9l-0.2,1.1l76.2,17.4l76.2,17.4l0.2-1.1
					C609.6,183.8,604.2,175.4,595.8,173.5z"/>
				<path fill="#E31E26" d="M559,145.5l-19.8-4.5l-19.8-4.5c-7.2-1.6-14.4,2.9-16.1,10.1l-1.3,5.5l7.8,1.8l1.3-5.5
					c0.7-2.9,3.6-4.8,6.5-4.1l19.8,4.5l19.8,4.5c2.9,0.7,4.8,3.6,4.1,6.5l-1.3,5.5l7.8,1.8l1.3-5.5
					C570.8,154.4,566.2,147.1,559,145.5z"/>
				<circle fill="#808285" cx="587.3" cy="433.1" r="34.8"/>
				<circle fill="#C7C8CA" cx="587.3" cy="433.1" r="14.9"/>
				<path fill="#581C0F" d="M535.8,369.8c0,0-76.1-59,36.7-91.9c0,0,34.2,62.6-26.2,88.3c0,0-20-19.9,10.3-37.2
					c0,0-10.8-0.1-18.5,4.8c0,0,4.6-27.7,24.9-39.7c0,0-18,3.7-28.6,24.3c0,0-4.4-7.8-10.4-9.2c0,0,4.6,6.5,6.1,14.2
					c0.5,2.7,0.4,5.6-0.2,8.3C528.7,336.4,527.1,349.6,535.8,369.8z"/>
				<path fill="#581C0F" d="M476.6,348.4c0,0,13.1-8.3,30.2-6.1c0,0,4.7,10.7,10.4,15.1c0,0-10.9-6.5-25.7-7.7
					c0,0,24.4,10,41.3,25.5C532.7,375.1,504.1,396.2,476.6,348.4z"/>
			</g>
			<path fill="#D56A1C" d="M483.6,467.9L483.6,467.9c-5.6,0-10.1-4.5-10.1-10.1v-21.2h20.1v21.2
				C493.6,463.4,489.1,467.9,483.6,467.9z"/>
		</g>
		<g>
			<path fill="#792E23" d="M969.2,467.9H755.5c-15.6,0-28.2-12.6-28.2-28.2v-2.3c0-15.6,12.6-28.2,28.2-28.2h213.7
				c15.6,0,28.2,12.6,28.2,28.2v2.3C997.4,455.3,984.8,467.9,969.2,467.9z"/>
			<path fill="#903A2E" d="M962.8,409.2c2-4.1,3.1-8.7,3.1-13.6c0-16.2-12.2-29.4-27.2-29.4H785.9c-15,0-27.2,13.1-27.2,29.4
				c0,4.9,1.1,9.5,3.1,13.6H962.8z"/>
			<path fill="#A44337" d="M937.4,366.2c2-3.4,3.2-7.5,3.2-11.8c0-12.3-9.2-22.2-20.5-22.2H804.6c-11.3,0-20.5,9.9-20.5,22.2
				c0,4.3,1.2,8.4,3.2,11.8H937.4z"/>
			<path fill="#B94738" d="M815.3,332.2c0,0-1.2-25.2,30.5-29.4c3.6-0.5,7.2-1.2,10.7-2.2c11.7-3.4,33.6-11.6,40.4-27.8
				c1.8-4.2,7-4.7,9.4-0.9c4.1,6.5,8,16.3,6.3,28.4c0,0,16.2,10.7,7.4,31.9H815.3z"/>
		</g>
		<g>
			<path fill="#FAD406" d="M1241.2,450.2c-3.6-2.8-6.3-5.5-6.3-5.5c-71.1-69-43.6-133-43.6-133c6.3-13.6,9.9-30.8,12-43.2
				c1.4-8.8,1.9-17.7,1.3-26.6c-0.6-9.1-0.5-16.2,0.1-22c0.7-7.4,5.4-12.9,11.2-15.7c7.3-3.5,16.6-2.5,22.8,4.5
				c14.3,16.4,12.4,47.5,9.3,67.6v0c-1.7,11.2-3.9,19-3.9,19c-13.9,78.9,5.1,128.9,10.9,141.8c0.4,0.8,0.7,1.6,0.9,2.4
				c0.9,2.4,1.6,5,1.9,7.6C1259.8,462.7,1248.6,456.1,1241.2,450.2z"/>
			<path fill="#D5AB13" d="M1311.3,394.4c-3.7-8.8-9.2-16.4-12.2-25.5c-13.5-40.9,1.6-87.2-19.5-126.3
				c-6.2-11.5-15.3-21.6-26.7-28.1c-0.7-0.4-14.2-6.3-14.3-5.8c15.7,18.1,11.8,54.1,8.3,73.5c7.2,8.2,10,20.7,11,31.3
				c0.9,10.4-1.1,20.5-0.6,30.9c0.7,13.4,4.1,26.6,9.2,39c6.1,14.9,14.6,28.6,24,41.6c6.3,8.7,10.9,22.8,20.4,28.7
				c2.1,1.3,5,1.6,6.8,0c1-0.9,1.5-2.1,1.9-3.4C1324.8,433.7,1317.8,409.8,1311.3,394.4z"/>
			<path fill="#E4BB11" d="M1204.5,222.4c-0.4,5.3-0.4,11.7,0.1,19.5c0.6,8.9,0.1,17.8-1.3,26.6c-0.8,4.8-1.8,10.4-3.2,16.1
				c-1.2,5.2-2.7,10.6-4.4,15.8c-26.3,7.1-38.9,43.6-47.6,65.5c-6.3,15.9-8,32.9-6,49.9c0.9,7.4,5.3,18.4,7.2,28.5
				c1.3,6.9,1.5,13.4-1.3,18.2c-10.3,16.9-19.8-9.9-23.3-16.6c-2.5-4.7-5-9.5-7.3-14.3c-5.3-10.6-10.2-21.3-13.9-32.5
				c-7.5-22.6-9.7-48.1,0.2-69.9c8.3-18.3,24-31.8,39.9-43.3c16.2-11.7,28.9-26.8,38-44.8c6.9-13.6,13.3-26.1,28.4-32.2v0
				c-2.7,2.9-4.6,6.7-5,11.1C1204.6,220.7,1204.6,221.6,1204.5,222.4z"/>
			<path fill="#CDA724" d="M1230,203.1c3.8-15,11.5-23.1,17.9-27.3c4.5-3,5.4-9.3,1.5-13.1c-3.4-3.4-9.1-3.3-12.2,0.3
				c-11.7,13.6-15.8,33.2-16.9,39.8C1223.5,202.1,1226.8,202.2,1230,203.1z"/>
			<path fill="#CDA724" d="M1147.8,462.4c-10.3,16.9-19.8-9.9-23.3-16.6c-2.5-4.7-5-9.5-7.3-14.3c-5.6-23.6-10.5-54.3-4.5-72.2
				c0,0,2.5,48.7,9.6,58.9c0,0-8.6-70.4,14.7-99.4c-0.6,2.6-14.9,59.8-3.6,113.8c-0.2-4.5-3.1-54.9,9.5-80.4c0,0-15.6,63.6,6.3,92
				C1150.5,451.2,1150.7,457.7,1147.8,462.4z"/>
			<path fill="#CDA724" d="M1203.3,268.4c-0.8,4.8-1.8,10.4-3.2,16.1c-9.1,9.7-19.3,10.2-19.3,10.2c10.8-6.5,16.5-27.7,16.9-29
				c-6.8,17.2-26.7,20.9-26.7,20.9c19.6-12.8,21.8-32,21.8-32c-5.6,15.3-24.8,22-26.3,22.5c14.9-9.2,22.8-31.2,22.8-31.2
				c2.5-11.2,11.1-19.9,15.3-23.6c-0.4,5.3-0.4,11.7,0.1,19.5C1205.2,250.7,1204.7,259.7,1203.3,268.4z"/>
			<path fill="#E4BB11" d="M1248,276.4c-0.7-32.6-9.3-32.7-9.3-32.7c2.8,17.3-11.4,39.6-11.4,39.6c4.6-13.7,0-36.5,0-36.5
				c-0.3,14.6-5.2,30.1-8.4,38.8c-1.3,3.5-3,6.8-4.8,10.1c-6.2,11.2-11.1,33.9-11.1,33.9c-2.4-5.1-1.3-14.5,0-21.3
				c0.8-4,1.9-7.9,3.4-11.7c5.3-13.8,9.8-37.9,9.8-37.9c3.5-24.8,1.7-43.4-0.2-54.3c7.3-3.5,16.6-2.5,22.8,4.5
				C1253,225.2,1251.1,256.3,1248,276.4z"/>
			<path fill="#581C0F" d="M1241.2,450.2c0.9-6.3,4.1-13.5,14.7-10.5c0.9,2.4,1.6,5,1.9,7.6C1259.8,462.7,1248.6,456.1,1241.2,450.2
				z"/>
			<path fill="#E4BB11" d="M1238.7,436.5c0,0-40-31.8-39.3-91.9c0,0,6.4,36.4,14.5,42c0,0-2.4-19.6,1.2-30.8
				C1215.1,355.8,1222.9,416.4,1238.7,436.5z"/>
			<path fill="#C29F21" d="M1261.8,236.6c7,7.7,12.2,16.8,16.4,26.4c4.2,9.6,6.8,19.9,8,30.3c0.2,2.6,0.4,5.3,0.5,7.9
				c0,2.6,0.1,5.3-0.1,7.9l-0.8,7.9c-0.4,2.5-0.7,5-1,7.5c-0.5,5-0.8,10-0.5,15c0.2,5,0.9,10.1,3.9,14.3c-4.1-3.4-5.8-8.9-6.9-13.9
				c-1-5.2-1.4-10.5-1.3-15.7c0-2.6,0.2-5.3,0.4-7.9l0.3-7.4l-0.1-7.5c-0.1-2.5-0.4-5-0.6-7.5c-1-9.9-3.2-19.7-6.4-29.3
				C1270.6,255.1,1266.7,245.7,1261.8,236.6z"/>
			<path fill="#C29F21" d="M1267.9,350.3c2.3,8,4.9,15.6,8.4,22.8c1.8,3.6,3.6,7,5.9,10.4l6.5,10.3c4.3,7,8.7,14,12.3,21.5
				c3.7,7.5,6.6,15.4,8,23.6c-3.8-7.4-7.8-14.4-12.2-21.3l-13.3-20.6c-4.2-7-8.8-14.1-11.6-22.2
				C1269.1,367,1267.7,358.6,1267.9,350.3z"/>
			<path fill="#C29F21" d="M1258.1,262c4,2.9,7.1,6.8,9.6,11c2.5,4.2,4.5,8.8,5.7,13.5c1.2,4.8,2,9.7,1.9,14.6
				c0,4.9-0.8,9.8-2.3,14.4c-1-4.8-1.5-9.4-2.4-14c-0.8-4.5-1.9-9-3-13.4C1265.2,279.3,1262,270.8,1258.1,262z"/>
		</g>
		<g>
			<path fill="#888890" d="M290.2,667.5l14.9,16c0.8,0.9,1.4,2,1.7,3.2c0.5,2.2-0.1,4.5-1.8,6.2c-26.1,24.7-76.1,16.4-93.3,12.5
				c-3.8-0.8-6.9-3.4-8.3-7.1c-17.9-46.5-13.1-95.9-9.9-115.8c0.8-5.3,5.6-9.1,10.9-8.6c62.5,5.9,95.7,57.6,104.9,74.5
				c1.5,2.8,0.2,6.3-2.8,7.4l-14.6,5.2C289.1,662,288.3,665.4,290.2,667.5z"/>
			<path fill="#58595B" d="M258.3,641.6c-4-5.4-8.7-10.2-13.5-14.8c2.9-3.7,5.7-7.5,7.9-11.8c-3.9,2.8-7.2,6.1-10.3,9.5
				c-2.5-2.3-5.1-4.5-7.8-6.6c-2.9-2.3-5.9-4.6-9.3-6.4c4.5,5.6,9.5,10.7,14.7,15.6c0,0,0,0,0,0c-3.7,4.5-7.3,9.1-10,14.4
				c4.8-3.5,8.9-7.7,12.7-12.1C247.6,633.9,252.6,638.1,258.3,641.6z"/>
			<path fill="#656668" d="M87.7,795l-7-0.9c5.6-41.8,21.2-98.7,64-132.8c25.8-20.6,49-23,50-23.1l0.7,7
				C194.4,645.2,106.4,655.5,87.7,795z"/>
			<path fill="#888890" d="M85.6,785.7l-1.3-0.1c-7.2,1.3-41.3,10-41.9,53.6c0,0,8-10.8,18.1-15.3c0,0,15.4-7.9,22.7-18.5l1.4,0.1
				c5.9,11.4,20.4,21,20.4,21c9.5,5.5,16.2,17.2,16.2,17.2C125.5,800.4,92.7,787.9,85.6,785.7z"/>
			<g>
				<path fill="#656668" d="M144.7,610.6c3.7,6.5,6.7,13.2,9.6,20c2.9,6.7,5.5,13.6,8.1,20.4c2.5,6.9,4.9,13.8,7.1,20.7
					c2.3,7,4.4,14,6.4,21.2c-4.6-5.9-8.2-12.5-11.5-19.1c-3.3-6.6-6.1-13.5-8.6-20.4c-2.5-6.9-4.8-13.9-6.7-21.1
					C147.2,625.3,145.5,618,144.7,610.6z"/>
				<path fill="#656668" d="M114.5,635.8c8.6,10.8,15.8,22.1,23.2,33.2l11,16.7l11.5,16.7c-6-3.5-11.1-8.2-15.8-13.2
					c-4.7-5.1-8.8-10.5-12.6-16.2c-3.8-5.7-7.1-11.7-10.1-17.8C118.8,648.9,116.2,642.5,114.5,635.8z"/>
				<path fill="#656668" d="M95,670.7c4.7,3.3,9,6.9,13.2,10.6c4.2,3.6,8.3,7.3,12.4,11c4.1,3.7,8.1,7.4,12.1,11.2
					c4,3.8,8.1,7.5,12.1,11.6c-5.5-1.6-10.7-4.2-15.5-7.3c-4.8-3.1-9.3-6.5-13.5-10.4c-4.2-3.8-8-8-11.5-12.4
					C100.7,680.6,97.4,676,95,670.7z"/>
				<path fill="#656668" d="M84.6,700.9c4.6,2.3,9,4.7,13.2,7.1l12.8,7.1l12.8,7c4.3,2.4,8.7,4.6,13.1,7.4c-5.2,0-10.3-0.8-15.2-2.3
					c-4.9-1.4-9.7-3.4-14.1-6c-4.5-2.5-8.7-5.4-12.5-8.8C90.8,709.1,87.3,705.4,84.6,700.9z"/>
				<path fill="#656668" d="M77.6,724.6c4.2,0.8,8.1,2.1,11.9,3.5c3.8,1.4,7.4,3,11,4.7c3.6,1.7,7.1,3.5,10.6,5.5
					c3.5,2,6.9,4,10.4,6.6c-4.3,0.3-8.4-0.4-12.5-1.5c-4-1.1-7.9-2.5-11.6-4.3c-3.7-1.8-7.2-3.9-10.6-6.2
					C83.5,730.6,80.3,728,77.6,724.6z"/>
				<path fill="#656668" d="M74.1,747.1c6.9,1.4,12.7,3.2,18.6,5.3c3,1,5.9,2.2,8.8,3.4c2.9,1.3,5.9,2.6,9,4.5
					c-6.8,1.9-13.8,0.9-20.1-1.2c-3.2-1.1-6.2-2.7-9.1-4.6C78.5,752.4,75.9,750.2,74.1,747.1z"/>
				<path fill="#656668" d="M74.1,768.6c2.7-0.4,5-0.3,7.3-0.1c2.3,0.2,4.5,0.6,6.6,1.1c2.1,0.5,4.2,1.1,6.3,1.9
					c2.1,0.8,4.2,1.6,6.6,2.8c-2.2,1.7-4.7,2.4-7.2,2.7c-2.5,0.2-5,0-7.3-0.6c-2.4-0.6-4.6-1.5-6.7-2.7
					C77.6,772.4,75.6,770.9,74.1,768.6z"/>
			</g>
			<path fill="#77777E" d="M304.9,692.9c-26.1,24.7-76.1,16.4-93.3,12.5c-3.8-0.8-6.9-3.4-8.3-7.1c-17.9-46.5-13.1-95.9-9.9-115.8
				c0,0,9.9,91.8,28,106.5c0,0,56.9,13.3,85.4-2.3C307.3,689,306.7,691.3,304.9,692.9z"/>
		</g>
		<g>
			<path fill="#CB7B58" d="M369.5,734.1c-2.8,9.2-4.1,18.8-3.4,28.1c0.7,9.3,3.2,18.3,8.1,25.5c4.8,7.3,11.9,12.5,20,15.5
				c8.1,3.2,16.6,4,24,1.8c3.8-0.9,7-3.1,10-5.3c2.8-2.6,5.4-5.4,7.2-8.9c3.7-6.8,5.4-14.8,4.8-22.8c-0.1-2-0.6-4-0.9-5.9
				c-0.4-2-1.1-3.9-1.6-5.8c-1.3-4-3.2-8.1-5.3-12.1c-4.2-8.1-9.4-16.2-14.6-24.9c-5.2-8.7-10.2-18.5-13.5-29.2
				c-3.3-10.7-5.1-23-2.4-35.5c2.6-12.6,9.8-24,18.9-32c18.2-16.3,43.7-22.2,67.2-17.2c11.7,2.6,23.7,8.4,32.5,17.5
				c9,8.9,14.8,20.1,18.2,31.3c3.3,11.2,4.3,22.6,3.9,33.8c-0.5,11.3-2.5,21.8-5,31.9c-5.1,20-11.9,38.4-15,55.9
				c-1.5,8.5-1.8,17-0.2,24.2c1.5,7.2,5.1,12.6,10.3,15.9c5.3,3.4,12.9,4.7,20.1,3.5c7.1-0.9,14.1-4.6,20.2-10
				c6.1-5.4,11.2-12.5,15.1-20.3c4-8.1,7-16.9,10-26.1c2.9-9.2,5.7-18.9,9.5-28.6c3.9-9.6,8.8-19.3,15.4-27.6
				c13.4-16.4,31.3-28.5,50.8-34.6c19.5-6.2,20.2-0.6,2.8,7.4c-17.3,7.8-32.3,20.2-42.3,35.5c-5,7.6-8.6,15.9-11.3,24.8
				c-2.7,8.9-4.7,18.4-7,28.1c-2.3,9.8-5.1,19.8-9.3,29.7c-4.3,10-10.3,19.7-18.5,27.9c-4.1,4.1-8.8,7.8-14,10.8
				c-5.1,3-11.2,5.4-17.2,6.6c-12.1,2.4-25.3,1.1-37-5.5c-5.8-3.3-11-8.1-14.8-13.6c-3.9-5.5-6.4-11.6-7.9-17.6
				c-3-12-2.7-23.6-1.2-34.5c3.3-21.4,10.2-40.2,14.4-58.4c2.2-9,3.8-18,4.1-26.4c0.3-8.5-0.6-17-2.9-24.7
				c-2.3-7.6-5.8-14.5-10.8-19.5c-4.9-5.1-11.3-8.4-18.7-10.2c-7.3-1.7-15.6-1.7-23,0.1c-7.5,1.8-14.7,5.4-20.4,10.1
				c-5.8,4.8-9.7,10.8-11.4,17.5c-1.7,6.8-1.1,14.7,1.1,22.9c4.3,16.4,15.5,32.2,24.2,51.6c2.2,4.9,4.2,9.9,5.6,15.3
				c0.6,2.8,1.4,5.6,1.9,8.5c0.3,2.9,0.7,5.8,0.7,8.7c0.2,11.7-2.8,23.6-9.6,33.5c-3.2,5-7.6,9.3-12.5,12.9
				c-5.1,3.3-10.6,6.1-16.5,7.1c-11.8,2.6-23.8,0.1-33.5-4.8c-9.9-4.8-18.7-12.8-23.8-22.6c-5.2-9.7-7.1-20.6-6.5-31
				c0.6-10.8,3.3-21.4,7.9-31C370.2,722.6,372.2,724.9,369.5,734.1z"/>
			<path fill="#B84C26" d="M584.7,795.8l17.6,9.1c4.7,2.4,10.2,0.2,12.3-4.9l7.5-18.8c2-5.1-0.1-11.1-4.8-13.3l-18.1-8.9
				c-4.7-2.3-10.2,0-12.2,5.2l-7.1,18.5C578.1,787.7,580.2,793.5,584.7,795.8z"/>
			<path fill="#B84C26" d="M376.6,799.2c2.8,2.4,5.7,4.6,8.8,6.5c3.1,1.8,6.4,3.3,9.8,4.4c3.4,1.1,6.9,1.9,10.4,2.2
				c3.5,0.3,7.1,0.1,10.5-0.5c13.8-2.4,25.4-13.3,29.2-26.6c2-6.6,2.1-13.8,1-20.8c-1.1-7-3.4-13.9-6.1-20.6
				c-5.4-13.4-12.9-26.2-18.9-39.6L433,723c3.7,6.3,7.4,12.7,10.5,19.5c3.2,6.7,5.7,13.8,7.1,21.3c1.3,7.5,1.3,15.3-0.9,22.8
				c-2.2,7.5-6.6,14.2-12.4,19.4c-5.8,5.1-13.2,8.5-20.8,9.5c-7.6,0.9-15.4-0.3-22.3-3.1C387.5,809.3,381.4,804.8,376.6,799.2z"/>
			<path fill="#B84C26" d="M419.8,644.8c3.4-7,8.8-13.1,15.2-17.8c6.5-4.7,14.2-7.4,22-9.1c7.8-1.8,16-1.6,23.9-0.3
				c7.9,1.2,15.7,4.1,22.5,8.4c6.8,4.4,13,10.2,16.8,17.4c4.1,7,6.3,14.9,7.4,22.7c2.1,15.8-0.2,32-7.2,46.1
				c2.5-7.4,4.2-15,4.7-22.6c0.7-7.6,0.3-15.4-1.1-22.8c-2.8-14.9-10.1-29.2-23.1-36.8c-3-2.2-6.5-3.5-9.9-5.1
				c-3.6-1.1-7.1-2.4-10.8-2.9c-7.4-1.4-15-1.7-22.5-0.5C442.6,623.5,428.3,631.5,419.8,644.8z"/>
			<path fill="#B84C26" d="M511.1,759.2c-0.8,5.8-1.6,11.5-1.7,17.2c-0.3,5.7-0.2,11.5,0.5,17.1c1.5,11.1,5.2,22.4,13.9,28.9
				c8.6,6.4,20.5,8.1,31.4,6.5c5.5-0.8,11-2.5,16-5.1c5.2-2.4,9.9-5.8,14.2-9.7c-7.1,9.2-17.8,15.9-29.5,18.4
				c-11.7,2.5-24.7,1.2-35-6.3c-4.9-3.9-8.6-9.2-10.9-14.8c-2.2-5.7-3.4-11.6-3.7-17.6C505.8,782,507.5,770.3,511.1,759.2z"/>
		</g>
		<g>
			<path fill="#DBC49D" d="M943.6,817.8c-2.2-1.9-2.8-5.1-1.3-7.5c21.5-34.5,25.6-77.1,25.6-103.4c0-26.2-4-68.9-25.6-103.4
				c-1.5-2.5-1-5.7,1.3-7.5c1.8-1.5,3.8-3.4,5.7-5.9c3.6-4.7,0.6-11.6-5.3-12.1c-4.4-0.4-10-0.3-16,1.1c-2.1,0.5-4.3,0.5-6.3-0.1
				c-7.8-2.5-29.6-8.5-59.3-9c-29.7,0.5-51.6,6.5-59.3,9c-2.1,0.7-4.2,0.6-6.3,0.1c-6-1.4-11.5-1.5-16-1.1
				c-5.9,0.5-8.9,7.4-5.3,12.1c1.9,2.4,3.9,4.4,5.7,5.9c2.2,1.9,2.8,5.1,1.3,7.5c-21.5,34.5-25.6,77.1-25.6,103.4
				c0,26.2,4,68.9,25.6,103.4c1.5,2.5,1,5.7-1.3,7.5c-1.8,1.5-3.8,3.4-5.7,5.9c-3.6,4.7-0.6,11.6,5.3,12.1c4.4,0.4,10,0.3,16-1.1
				c2.1-0.5,4.3-0.5,6.3,0.1c7.8,2.5,29.6,8.5,59.3,9c29.7-0.5,51.6-6.5,59.3-9c2.1-0.7,4.2-0.6,6.3-0.1c6,1.4,11.5,1.5,16,1.1
				c5.9-0.5,8.9-7.4,5.3-12.1C947.4,821.3,945.3,819.3,943.6,817.8z"/>
			<path fill="#C1A98A" d="M910.1,795.6h-95.4c-9.6,0-17.3-7.7-17.3-17.3V635.5c0-9.6,7.7-17.3,17.3-17.3h95.4
				c9.6,0,17.3,7.7,17.3,17.3v142.9C927.3,787.9,919.6,795.6,910.1,795.6z"/>
			<rect x="797.3" y="688.7" fill="#B94738" width="130" height="36.4"/>
			<g>
				<path fill="#EDD3A9" d="M828.2,698.8c-0.5-0.5-1.1-0.8-1.8-1.1c-1.4-0.5-3.2-0.5-4.6,0c-0.7,0.3-1.3,0.6-1.8,1.1
					c-0.5,0.5-0.9,1-1.2,1.7c-0.3,0.6-0.4,1.3-0.4,2.1v10.9c0,1,0.2,1.9,0.6,2.6c0.4,0.7,0.8,1.2,1.4,1.6c0.6,0.4,1.2,0.7,1.9,0.9
					c0.7,0.2,1.3,0.2,2,0.2c0.8,0,1.5-0.1,2.2-0.4c0.7-0.3,1.3-0.7,1.8-1.1c0.5-0.5,0.9-1,1.2-1.7c0.3-0.6,0.4-1.3,0.4-2v-1.2
					c0-0.4-0.3-0.6-0.6-0.6h-3.2c-0.4,0-0.6,0.3-0.6,0.6v1c0,0.3,0,0.5-0.1,0.7c-0.1,0.2-0.2,0.3-0.3,0.4c-0.1,0.1-0.3,0.2-0.4,0.2
					c-0.8,0.2-1.3,0-1.5-0.2c-0.2-0.3-0.3-0.6-0.3-1.1V703c0-0.5,0.1-1,0.3-1.3c0.1-0.2,0.5-0.3,1-0.3c0.4,0,0.7,0.1,0.9,0.4
					c0.2,0.3,0.4,0.6,0.4,1v0.9c0,0.4,0.3,0.6,0.6,0.6h3.2c0.4,0,0.6-0.3,0.6-0.6v-1.1c0-0.8-0.1-1.5-0.4-2.2
					C829.2,699.8,828.8,699.2,828.2,698.8z"/>
				<path fill="#EDD3A9" d="M841,698.6c-0.6-0.4-1.2-0.8-1.9-1c-1.4-0.4-2.8-0.4-4.2,0c-0.7,0.2-1.3,0.6-1.9,1c-0.6,0.5-1,1-1.4,1.7
					c-0.4,0.7-0.5,1.5-0.5,2.4v10.4c0,0.9,0.2,1.7,0.5,2.4c0.4,0.7,0.8,1.3,1.4,1.7c0.6,0.4,1.2,0.8,1.9,1c0.7,0.2,1.4,0.3,2.1,0.3
					c0.7,0,1.4-0.1,2.1-0.3c0.7-0.2,1.3-0.6,1.9-1c0.6-0.5,1-1,1.4-1.7c0.4-0.7,0.5-1.5,0.5-2.4v-10.4c0-0.9-0.2-1.7-0.5-2.4
					C842,699.6,841.5,699.1,841,698.6z M838.4,702.7v10.4c0,0.7-0.3,0.9-0.4,1c-0.6,0.5-1.6,0.5-2.2,0c-0.1-0.1-0.4-0.3-0.4-1v-10.4
					c0-0.7,0.3-0.9,0.4-1c0.3-0.2,0.7-0.4,1.1-0.4s0.8,0.1,1.1,0.4C838.1,701.8,838.4,702,838.4,702.7z"/>
				<path fill="#EDD3A9" d="M859.3,697.4h-3.1c-0.3,0-0.5,0.2-0.6,0.4l-3.5,9l-3.5-9c-0.1-0.2-0.3-0.4-0.6-0.4h-3
					c-0.4,0-0.6,0.3-0.6,0.6v19.8c0,0.4,0.3,0.6,0.6,0.6h3.2c0.4,0,0.6-0.3,0.6-0.6v-8.5l1.9,5.2c0.1,0.3,0.3,0.4,0.6,0.4h1.6
					c0.3,0,0.5-0.2,0.6-0.4l1.9-5.3v8.6c0,0.4,0.3,0.6,0.6,0.6h3.2c0.4,0,0.6-0.3,0.6-0.6v-19.8
					C859.9,697.7,859.7,697.4,859.3,697.4z"/>
				<path fill="#EDD3A9" d="M871.6,699c-0.6-0.6-1.3-1-2.1-1.2c-0.7-0.2-1.6-0.3-2.5-0.3h-4.7c-0.4,0-0.6,0.3-0.6,0.6v19.8
					c0,0.4,0.3,0.6,0.6,0.6h3.2c0.4,0,0.6-0.3,0.6-0.6v-7.1h1c1.3,0,2.3-0.2,3.1-0.6c0.8-0.4,1.5-1,2-1.7c0.4-0.6,0.7-1.3,0.8-2
					c0.1-0.7,0.2-1.4,0.2-2.4c0-1.3-0.1-2.2-0.3-3C872.6,700.3,872.2,699.6,871.6,699z M868.9,704.1c0,0.5,0,0.9,0,1.3
					c0,0.3-0.1,0.6-0.2,0.8c-0.1,0.2-0.3,0.3-0.5,0.4c-0.2,0.1-0.5,0.2-1.2,0.2h-0.9v-5.4h1c0.6,0,1,0.1,1.1,0.2
					c0.2,0.1,0.4,0.3,0.5,0.4c0.1,0.2,0.2,0.5,0.2,0.8C868.9,703.3,868.9,703.7,868.9,704.1z"/>
				<path fill="#EDD3A9" d="M884,698.6c-0.6-0.4-1.2-0.8-1.9-1c-1.4-0.4-2.8-0.4-4.2,0c-0.7,0.2-1.3,0.6-1.9,1c-0.6,0.5-1,1-1.4,1.7
					c-0.4,0.7-0.5,1.5-0.5,2.4v10.4c0,0.9,0.2,1.7,0.5,2.4c0.4,0.7,0.8,1.3,1.4,1.7c0.6,0.4,1.2,0.8,1.9,1c0.7,0.2,1.4,0.3,2.1,0.3
					c0.7,0,1.4-0.1,2.1-0.3c0.7-0.2,1.3-0.6,1.9-1c0.6-0.5,1-1,1.4-1.7c0.4-0.7,0.5-1.5,0.5-2.4v-10.4c0-0.9-0.2-1.7-0.5-2.4
					C885.1,699.6,884.6,699.1,884,698.6z M881.5,702.7v10.4c0,0.7-0.3,0.9-0.4,1c-0.6,0.5-1.6,0.5-2.2,0c-0.1-0.1-0.4-0.3-0.4-1
					v-10.4c0-0.7,0.3-0.9,0.4-1c0.3-0.2,0.7-0.4,1.1-0.4s0.8,0.1,1.1,0.4C881.2,701.8,881.5,702,881.5,702.7z"/>
				<path fill="#EDD3A9" d="M897.3,698.8c-0.5-0.5-1.1-0.9-1.9-1.2c-1.6-0.6-3.6-0.5-5,0c-0.8,0.3-1.4,0.8-1.9,1.3
					c-0.5,0.5-0.9,1.2-1.1,2c-0.2,0.7-0.4,1.5-0.4,2.3c0,1.3,0.3,2.5,0.8,3.4c0.5,1,1.6,1.7,3.1,2.3l2.3,0.8
					c0.4,0.1,0.6,0.3,0.9,0.4c0.1,0.1,0.3,0.2,0.3,0.3c0.1,0.1,0.1,0.3,0.2,0.5c0,0.3,0.1,0.7,0.1,1.2c0,0.4,0,0.8-0.1,1.2
					c0,0.3-0.1,0.5-0.2,0.7c-0.1,0.1-0.2,0.3-0.4,0.3c-0.1,0.1-0.4,0.1-1,0.1c-0.6,0-1-0.1-1.2-0.4c-0.2-0.3-0.4-0.6-0.4-1v-0.9
					c0-0.4-0.3-0.6-0.6-0.6h-3.2c-0.4,0-0.6,0.3-0.6,0.6v1.1c0,0.8,0.2,1.5,0.5,2.1c0.3,0.6,0.7,1.2,1.3,1.7
					c0.5,0.5,1.2,0.8,1.9,1.1c0.7,0.3,1.5,0.4,2.4,0.4c1.1,0,2-0.2,2.8-0.5c0.8-0.3,1.4-0.8,1.9-1.4c0.5-0.6,0.8-1.3,1-2.1
					c0.2-0.8,0.3-1.6,0.3-2.5c0-0.8,0-1.4-0.1-2c-0.1-0.6-0.3-1.2-0.6-1.7c-0.3-0.5-0.7-1-1.2-1.3c-0.5-0.4-1.1-0.7-1.9-0.9
					l-2.4-0.9c-0.4-0.1-0.7-0.3-0.9-0.4c-0.2-0.1-0.3-0.2-0.3-0.3c-0.1-0.1-0.1-0.3-0.1-0.4c0-0.2,0-0.6,0-0.9c0-0.3,0-0.6,0.1-0.8
					c0-0.2,0.1-0.4,0.2-0.6c0.1-0.1,0.2-0.3,0.4-0.4c0.2-0.1,0.4-0.1,0.8-0.1c0.9,0,1.1,0.3,1.2,0.4c0.3,0.4,0.4,0.8,0.4,1.3v0.6
					c0,0.4,0.3,0.6,0.6,0.6h3.2c0.4,0,0.6-0.3,0.6-0.6v-1.4c0-0.6-0.1-1.3-0.4-1.9C898.3,699.9,897.8,699.3,897.3,698.8z"/>
				<path fill="#EDD3A9" d="M910.6,697.4h-10.5c-0.4,0-0.6,0.3-0.6,0.6v2.7c0,0.4,0.3,0.6,0.6,0.6h3v16.5c0,0.4,0.3,0.6,0.6,0.6h3.2
					c0.4,0,0.6-0.3,0.6-0.6v-16.5h3c0.4,0,0.6-0.3,0.6-0.6v-2.7C911.2,697.7,910.9,697.4,910.6,697.4z"/>
			</g>
		</g>
		<g>
			<path fill="#91C33E" d="M1201,747.7c0,0,17.8-62.5-21.7-103.4c-5.4-5.6-11.8-10.1-18.7-13.7c-13.7-7.4-44.5-27.2-44.2-56.4
				c0,0-52.6,125.5,66.1,141.2c0,0,0.8-33.6-27.7-59.1c0,0,43.2,15.5,36.2,91.4H1201z"/>
			<path fill="#903A2E" d="M1357.6,843.9h-296.9c0,0,9.2-25.5,40.7-33.1c0,0,6-64.6,86.4-69.9c0,0,57.8-3,76.6,37.6
				c0,0,18.5,0.4,39.5,8.8C1324.7,795.7,1347.8,812,1357.6,843.9z"/>
			<path fill="#792E23" d="M1303.9,787.3c-97.8-10-139.3,35.1-142.7,39c38.1-56.8,103.2-47.8,103.2-47.8S1283,778.9,1303.9,787.3z"
				/>
			<path fill="#68A238" d="M1277.2,606.5c-4.5,17.3-36.4,26.7-36.4,26.7c-29.3,12.1-30.5,34.6-29.3,45.1c0.8,6.8-2.3,13.5-8,17
				c0.2,1.4,0.4,2.7,0.6,4.1c37.8-15.8,49.1-45.3,49.1-45.3c-5.3,34-40.2,47.5-40.2,47.5C1287.3,698.9,1277.2,606.5,1277.2,606.5z"
				/>
		</g>
	</g>
</g>
</svg>
